<svg xmlns="http://www.w3.org/2000/svg" version="1.0" width="1024.000000pt" height="1024.000000pt" viewBox="-3 -3 1030 1030" preserveAspectRatio="xMidYMid meet" transform="matrix(1, 0, 0, 1, 0, 0)"><g id="deeditor_bgCarrier" stroke-width="0">
  <rect id="dee_c_e" x="-3" y="-3" width="1030" height="1030" rx="38.4" fill="#fdffff" strokewidth="0"/>
</g>
<metadata fill="#53d800">
Created by potrace 1.16, written by Peter Selinger 2001-2019
<meta name="Producer" content="Online-Convert" fill="#53d800"/></metadata>
<g transform="translate(0.000000,1024.000000) scale(0.100000,-0.100000)" fill="#53d800" stroke="none">
<path d="M3365 8454 c-187 -91 -522 -253 -745 -361 -223 -107 -413 -202 -422 -211 -10 -8 -18 -28 -18 -43 0 -32 24 -53 110 -96 l55 -28 3 -221 2 -220 -44 -47 c-68 -71 -71 -144 -9 -218 l26 -30 -37 -152 c-44 -184 -45 -207 -8 -248 23 -26 36 -31 89 -36 87 -8 128 2 168 43 44 44 44 54 0 239 l-36 147 36 52 c56 81 45 157 -31 219 l-34 28 0 196 c0 111 4 193 9 191 5 -1 88 -39 185 -83 l176 -80 -6 -254 -7 -253 45 34 c111 85 330 177 519 220 93 20 129 23 334 23 214 -1 238 -2 347 -28 184 -42 382 -125 486 -204 23 -18 45 -33 49 -33 3 0 4 80 0 178 -3 97 -2 210 1 251 l7 75 302 141 c167 78 314 152 328 165 29 27 32 56 8 89 -17 26 -10 22 -613 302 -228 105 -525 243 -660 305 -135 63 -252 114 -260 114 -8 0 -168 -75 -355 -166z" fill="#53d800"/>
<path d="M4793 7265 c-11 -8 -13 -35 -11 -120 l3 -110 1551 -3 1551 -2 19 -21 c18 -21 19 -56 19 -1256 0 -1211 0 -1235 -19 -1249 -17 -12 -192 -14 -1167 -14 -967 0 -1148 -2 -1158 -14 -8 -9 -11 -55 -9 -137 l3 -124 438 -5 439 -5 19 -24 c23 -28 24 -41 5 -67 -14 -18 -33 -19 -529 -22 -471 -2 -515 -1 -528 14 -11 14 -14 55 -12 198 5 360 -51 682 -149 855 -97 173 -260 352 -417 460 -51 34 -147 89 -214 121 -113 54 -277 110 -321 110 -10 0 -45 -25 -77 -55 -67 -61 -148 -103 -264 -137 -69 -20 -101 -23 -235 -22 -138 1 -165 4 -245 28 -120 36 -239 95 -299 147 l-48 43 -45 -12 c-136 -37 -400 -155 -524 -235 -143 -92 -299 -239 -379 -358 -62 -90 -125 -230 -156 -344 -25 -91 -27 -120 -32 -329 -5 -250 11 -503 34 -551 16 -33 64 -70 115 -87 54 -18 5899 -20 5992 -2 122 24 209 89 278 209 27 47 29 57 29 166 0 76 -4 119 -12 127 -8 8 -53 12 -135 12 -113 0 -124 2 -143 22 -20 22 -20 27 -20 1298 0 1445 5 1346 -78 1429 -33 32 -61 51 -92 59 -60 15 -3156 22 -3177 7z" fill="#53d800"/>
<path d="M3522 7129 c-218 -25 -458 -118 -619 -240 l-53 -40 0 -64 c0 -247 93 -481 264 -662 129 -137 280 -222 464 -260 107 -22 309 -13 407 17 218 68 414 240 520 455 60 123 86 225 95 370 8 142 11 136 -118 222 -248 166 -613 242 -960 202z" fill="#53d800"/>
<path d="M6880 6664 c-14 -2 -63 -9 -110 -15 -153 -20 -305 -73 -386 -135 -17 -12 -41 -44 -53 -69 -45 -96 -51 -161 -51 -559 0 -353 -1 -380 -25 -506 -13 -73 -26 -135 -29 -137 -3 -3 -7 5 -10 18 -19 83 -26 242 -26 602 0 333 -3 422 -16 484 -29 140 -72 191 -204 242 -144 56 -219 66 -490 65 -163 0 -254 -4 -273 -12 l-27 -12 2 -554 c3 -537 4 -555 23 -580 11 -13 47 -60 80 -104 l60 -80 140 6 c303 11 581 -58 621 -154 13 -32 20 -114 9 -114 -3 0 -23 11 -44 24 -46 29 -140 70 -196 85 -67 18 -285 33 -372 26 l-82 -7 31 -63 31 -62 169 -7 c268 -12 397 -48 520 -146 28 -22 59 -40 68 -40 10 0 40 18 66 41 158 131 302 156 871 146 194 -4 359 -4 368 -1 13 5 15 80 15 664 0 404 -4 669 -10 684 -7 20 -17 26 -38 26 -65 0 -62 28 -62 -663 0 -344 -4 -628 -8 -631 -5 -3 -36 4 -70 14 -97 30 -270 50 -440 50 -245 0 -383 -28 -532 -106 -30 -16 -59 -31 -64 -33 -13 -5 1 72 20 112 31 65 123 107 302 137 144 24 360 26 522 5 63 -8 117 -12 122 -7 9 9 12 1347 3 1362 -6 9 -364 12 -425 4z" fill="#53d800"/>
<path d="M4930 6380 c-13 -8 -15 -56 -18 -313 l-3 -303 62 -48 62 -48 -7 327 c-8 356 -13 395 -58 395 -13 0 -30 -5 -38 -10z" fill="#53d800"/>
<path d="M8720 3243 c-246 -27 -430 -261 -430 -547 1 -290 156 -492 426 -552 70 -15 83 -15 154 -1 94 18 169 54 249 119 l61 49 0 204 0 205 -200 0 -200 0 0 -90 0 -90 100 0 100 0 0 -54 c0 -64 -20 -95 -83 -125 -97 -47 -236 -14 -297 70 -96 133 -99 380 -6 518 92 136 291 128 382 -15 19 -30 37 -54 40 -54 6 0 168 62 173 66 2 2 -7 28 -19 59 -28 69 -93 143 -157 177 -82 45 -206 70 -293 61z" fill="#53d800"/>
<path d="M4173 3213 c-30 -77 -348 -1055 -344 -1059 2 -2 53 -4 112 -4 l108 0 37 115 37 115 177 0 177 0 37 -115 37 -116 115 3 c81 2 114 6 114 15 0 7 -70 227 -156 490 -85 263 -162 499 -171 526 l-15 47 -129 0 c-114 0 -130 -2 -136 -17z m196 -463 c30 -99 52 -183 49 -186 -3 -2 -58 -3 -122 -2 l-116 3 62 183 c34 100 64 182 68 182 3 0 30 -81 59 -180z" fill="#53d800"/>
<path d="M5840 2697 l0 -534 53 -7 c28 -3 76 -6 104 -6 l53 0 2 348 3 347 23 -44 c13 -24 88 -152 166 -285 79 -133 157 -267 175 -298 l32 -58 114 0 113 0 -3 478 c-2 262 -6 501 -10 530 l-8 52 -98 0 -99 0 -1 -67 c-1 -38 -4 -186 -8 -330 l-6 -261 -195 331 -195 332 -108 3 -107 3 0 -534z" fill="#53d800"/>
<path d="M6968 3222 l-78 -3 0 -532 0 -532 110 3 110 3 -5 357 c-3 196 -6 436 -5 532 l0 175 -28 0 c-15 0 -62 -1 -104 -3z" fill="#53d800"/>
<path d="M7320 2690 l0 -540 100 0 100 0 0 353 0 352 73 -130 c40 -71 131 -228 202 -347 l128 -218 114 0 113 0 0 530 0 530 -99 0 -99 0 -4 -82 c-2 -46 -5 -193 -6 -328 -2 -134 -4 -246 -6 -247 -2 -2 -92 145 -201 326 -138 229 -205 331 -219 335 -12 3 -60 6 -108 6 l-88 0 0 -540z" fill="#53d800"/>
<path d="M910 2690 l0 -530 330 0 331 0 -3 89 -3 90 -208 5 c-114 3 -212 8 -217 11 -6 3 -10 55 -10 115 l0 110 192 2 192 3 -1 90 0 90 -192 3 -191 2 0 125 0 125 205 0 205 0 0 100 0 100 -315 0 -315 0 0 -530z" fill="#53d800"/>
<path d="M2320 2690 l0 -530 303 2 302 3 3 93 3 92 -196 0 -195 0 0 435 0 435 -110 0 -110 0 0 -530z" fill="#53d800"/>
<path d="M3070 2848 c0 -205 3 -444 7 -531 l6 -158 321 3 321 3 3 40 c2 22 1 64 -3 93 l-6 52 -208 0 -208 0 -7 38 c-3 20 -6 74 -6 120 l0 82 195 0 196 0 -3 88 -3 87 -192 3 -193 2 0 125 0 125 128 0 c71 0 163 3 205 6 l77 7 0 93 0 94 -315 0 -315 0 0 -372z" fill="#53d800"/>
<path d="M4910 2686 l0 -536 110 0 110 0 0 205 0 205 59 0 58 0 104 -202 104 -203 113 1 c62 1 115 4 118 7 7 7 -35 88 -140 272 l-85 149 49 24 c98 46 150 141 150 273 0 145 -61 253 -175 309 -49 24 -57 25 -312 28 l-263 3 0 -535z m438 340 c54 -28 75 -62 80 -125 8 -118 -46 -160 -205 -161 l-93 0 0 150 0 150 95 0 c63 0 105 -5 123 -14z" fill="#53d800"/>
<path d="M1740 2676 c0 -29 3 -74 6 -100 l7 -46 196 2 196 3 3 98 3 97 -206 0 -205 0 0 -54z" fill="#53d800"/>
</g>
</svg>